<?xml version="1.0" encoding="utf-8"?>
<svg version="1.1" id="Layer_1" xmlns="http://www.w3.org/2000/svg" xmlns:xlink="http://www.w3.org/1999/xlink" x="0px" y="0px"
	 viewBox="311 24.6 792 252.4" enable-background="new 311 24.6 792 252.4" xml:space="preserve">
<g>
	<path fill="#00517E" d="M341.8,130.9h14.7V216h-14.7V130.9z"/>
	<g>
		<path fill="#00517E" d="M425.9,156.3h14.3v60.1h-14l-0.7-8.8c-3.4,7.1-12.8,10.5-19.5,10.6c-17.8,0.1-31-10.9-31-31.9 c0-20.7,13.8-31.6,31.3-31.4c8,0,15.7,3.8,19.1,9.8L425.9,156.3L425.9,156.3z M389.8,186.3c0,11.5,7.9,18.3,17.8,18.3 c23.4,0,23.4-36.4,0-36.4C397.7,168.2,389.8,174.9,389.8,186.3"/>
		<path fill="#00517E" d="M475.8,156.3v31.4c0,9.1,5,16.1,14.5,16.1c9.1,0,15.3-7.7,15.3-16.8v-30.7h14.7v60.2h-13.3l-1-8.2 c-6.2,6.1-11.9,9-20.4,9c-14.4,0-24.9-10.8-24.9-29.5v-31.6L475.8,156.3L475.8,156.3z M585.9,216.4V185c0-9.1-5-16.1-14.5-16.1 c-9.1,0-15.4,7.7-15.4,16.8v30.7h-14.7v-60.2h13.3l1,8.2c6.1-6,12.2-9,19.7-9c14.1,0,25.5,10.6,25.5,29.5v31.6L585.9,216.4 L585.9,216.4z M674.5,208.7c-6.9,6.8-14.3,9.5-23.2,9.5c-17.4,0-31.9-10.5-31.9-31.8c0-21.3,14.5-31.8,31.9-31.8 c8.5,0,15.1,2.4,21.7,8.9l-9.4,9.9c-3.5-3.2-7.9-4.7-12.1-4.7c-10,0-17.3,7.3-17.3,17.8c0,11.5,7.8,17.6,17.1,17.6 c4.8,0,9.5-1.3,13.2-5L674.5,208.7L674.5,208.7z M705.9,131.1v33.4c5.4-6.9,11.9-9,18.8-9c17.1,0,24.6,11.6,24.6,29.2v31.7h-14.9 v-31.6c0-11-5.7-15.6-13.7-15.6c-8.8,0-14.9,7.4-14.9,16.4v30.7H691v-85.3L705.9,131.1L705.9,131.1z M765.4,227.8H856v13h-90.6 V227.8z M918.7,208.7c-6.9,6.8-14.3,9.5-23.1,9.5c-17.4,0-31.9-10.5-31.9-31.8c0-21.3,14.5-31.8,31.9-31.8 c8.5,0,15.1,2.4,21.7,8.9l-9.4,9.9c-3.5-3.2-7.9-4.7-12.1-4.7c-10,0-17.3,7.3-17.3,17.8c0,11.5,7.8,17.6,17.1,17.6 c4.7,0,9.5-1.3,13.1-5L918.7,208.7L918.7,208.7z M992.5,186.4c0,17.3-11.8,31.3-31.3,31.3s-31.2-14-31.2-31.3 c0-17.2,11.9-31.3,31.1-31.3C980.2,155.1,992.5,169.3,992.5,186.4 M944.9,186.4c0,9.1,5.5,17.7,16.3,17.7 c10.8,0,16.3-8.5,16.3-17.7c0-9-6.3-17.8-16.3-17.8C950.5,168.6,944.9,177.4,944.9,186.4 M1072.2,131.2v85.2h-13.9l-1-8.3 c-4.6,7.2-12.1,9.6-19.4,9.6c-17.7,0-31-11.7-31-31.4c0-20.7,13-31.4,30.6-31.4c6.3,0,16.2,3.4,19.7,9.6v-33.3 C1057.3,131.2,1072.2,131.2,1072.2,131.2z M1021.9,186.3c0,10.5,7.6,17.7,17.1,17.7c9.4,0,17.4-6.8,17.4-17.7 c0-10.5-8-17.5-17.4-17.5C1029.4,168.8,1021.9,175.5,1021.9,186.3"/>
	</g>
	<g>
		<path fill="#00517E" d="M810.2,99.7c-5.9,0-10.8,4.8-10.8,10.8c0,5.9,4.8,10.8,10.8,10.8c5.9,0,10.8-4.8,10.8-10.8 C821,104.6,816.1,99.7,810.2,99.7 M810.2,115.5c-2.8,0-5-2.2-5-5c0-2.7,2.3-5,5-5c2.8,0,5,2.2,5,5 C815.2,113.3,813,115.5,810.2,115.5"/>
	</g>
	<g transform="translate(0,50)">
		<path id="seg" fill="#00517E" d="M828.8,172.4c-19.1-12-37.1-39.8-43.2-70.7c-6.1-30.7-0.4-63.8,26.4-87l-1.7-4 c-55.6,49.2-29.9,140.2,14.8,166L828.8,172.4z"/>
		<path id="seg_1_" fill="#00517E" d="M791.7,172.4c19.1-12,37.1-39.8,43.2-70.7c6.1-30.7,0.4-63.8-26.4-87l1.7-4 c55.6,49.2,29.9,140.2-14.8,166L791.7,172.4z"/>
	</g>
</g>
</svg>
